# xmcd
#
# Track frame offsets: 
#        150
#        13387
#        28587
#        42346
#        57514
#        74561
#        93320
#        105974
#        120975
#        136125
#        149393
#        165077
#        181354
#
# Disc length: 2612 seconds
#
# Revision: 0
# Processed by: cddbd v1.5.2PL0 Copyright (c) Steve Scherf et al.
# Submitted via: ExactAudioCopyFreeDBPlugin 1.0
#
DISCID=ab0a320d
DTITLE=Band Of Oz - The Early Years
DYEAR=2002
DGENRE=Beach
TTITLE0=Keep Keeping It Up
TTITLE1=Shaggin'
TTITLE2=Ocean Boulevard
TTITLE3=When Love Is New
TTITLE4=Star Of My Life
TTITLE5=Messing With My Mind
TTITLE6=Lipstick Traces
TTITLE7=Got To Get You Into My Life
TTITLE8=Hot Fun In The Summertime
TTITLE9=Goodtime Music
TTITLE10=Super Summer
TTITLE11=Reputation
TTITLE12=Southern Belles
EXTD=
EXTT0=
EXTT1=
EXTT2=
EXTT3=
EXTT4=
EXTT5=
EXTT6=
EXTT7=
EXTT8=
EXTT9=
EXTT10=
EXTT11=
EXTT12=
PLAYORDER=
